<?xml version="1.0" standalone="no"?>
<!DOCTYPE svg PUBLIC "-//W3C//DTD SVG 20010904//EN"
 "http://www.w3.org/TR/2001/REC-SVG-20010904/DTD/svg10.dtd">
<svg version="1.0" xmlns="http://www.w3.org/2000/svg"
 width="416.000000pt" height="422.000000pt" viewBox="0 0 416.000000 422.000000"
 preserveAspectRatio="xMidYMid meet">

<g transform="translate(0.000000,422.000000) scale(0.100000,-0.100000)"
fill="#000000" stroke="none">
<path d="M1890 4074 c-14 -2 -59 -9 -100 -15 -411 -59 -834 -279 -1119 -585
-78 -83 -211 -257 -249 -324 l-23 -40 28 0 c24 0 35 12 77 76 169 264 440 506
724 648 287 144 547 206 862 206 315 0 575 -62 862 -206 284 -142 555 -384
724 -648 42 -64 53 -76 77 -76 l28 0 -23 40 c-13 23 -57 87 -100 143 -306 412
-719 665 -1242 764 -77 14 -467 27 -526 17z"/>
<path d="M1937 2926 c-116 -48 -187 -115 -241 -226 -29 -61 -31 -72 -31 -180
0 -108 2 -119 31 -180 45 -95 111 -162 202 -207 75 -37 78 -38 191 -38 110 0
120 2 184 32 89 42 168 121 210 210 30 64 32 74 32 183 0 108 -2 119 -31 181
-53 112 -144 194 -258 232 -77 26 -216 23 -289 -7z m271 -28 c279 -86 369
-445 164 -654 -159 -160 -412 -157 -568 7 -61 66 -90 123 -103 209 -45 286
231 524 507 438z"/>
<path d="M2077 2794 c-4 -4 -7 -22 -7 -41 0 -32 -1 -33 -41 -33 -33 0 -47 -6
-75 -34 -43 -43 -46 -93 -9 -142 21 -27 35 -35 75 -40 l50 -7 0 -68 0 -68 -72
-3 c-60 -2 -73 -6 -76 -20 -3 -16 6 -18 72 -18 l75 0 3 -37 c2 -26 8 -38 18
-38 10 0 16 12 18 38 3 36 4 37 44 37 32 0 47 7 74 34 69 69 32 169 -67 182
l-49 7 0 68 0 69 64 0 c46 0 65 4 69 14 9 22 -2 26 -69 26 l-63 0 -3 37 c-3
35 -17 51 -31 37z m-7 -184 l0 -70 -33 0 c-43 0 -77 31 -77 70 0 41 32 70 75
70 l35 0 0 -70z m128 -130 c48 -45 14 -120 -53 -120 l-35 0 0 70 0 70 33 0
c20 0 42 -8 55 -20z"/>
<path d="M1030 1798 c0 -129 0 -131 -19 -114 -50 45 -144 23 -189 -44 -20 -30
-23 -43 -17 -84 3 -27 12 -58 20 -69 37 -53 116 -72 175 -42 25 13 29 13 34
-1 4 -9 15 -14 28 -12 l23 3 3 248 2 247 -30 0 -30 0 0 -132z m-55 -148 c26 0
55 -42 55 -80 0 -65 -60 -105 -121 -80 -36 15 -49 37 -49 83 0 45 51 93 88 81
8 -2 20 -4 27 -4z"/>
<path d="M2450 1680 l0 -250 25 0 25 0 0 250 0 250 -25 0 -25 0 0 -250z"/>
<path d="M140 1664 l0 -237 94 6 c143 8 196 43 196 131 0 37 -40 96 -66 96
-20 0 -17 10 10 35 54 50 41 152 -24 186 -26 14 -56 19 -122 19 l-88 0 0 -236z
m180 151 c23 -20 25 -46 9 -78 -17 -31 -28 -37 -76 -37 l-43 0 0 71 0 72 45
-6 c25 -2 55 -13 65 -22z m20 -200 c26 -24 25 -63 -2 -92 -17 -18 -32 -23 -75
-23 l-53 0 0 71 0 71 55 -4 c34 -3 62 -12 75 -23z"/>
<path d="M2100 1665 l0 -235 35 0 35 0 0 85 0 85 43 0 c63 0 110 16 142 50 24
25 30 40 33 93 4 57 2 66 -24 96 -40 47 -80 61 -179 61 l-85 0 0 -235z m169
164 c54 -19 69 -84 30 -133 -18 -22 -28 -26 -75 -26 l-54 0 0 85 0 85 34 0
c18 0 47 -5 65 -11z"/>
<path d="M1840 1760 c0 -57 -1 -60 -25 -60 -20 0 -25 -5 -25 -25 0 -20 5 -25
25 -25 l25 0 0 -110 0 -110 25 0 25 0 0 110 0 110 35 0 c31 0 35 3 35 25 0 22
-4 25 -35 25 l-35 0 0 60 c0 57 -1 60 -25 60 -24 0 -25 -3 -25 -60z"/>
<path d="M1235 1696 c-74 -33 -105 -116 -70 -189 34 -71 132 -101 189 -56 l26
20 0 -34 c0 -67 -78 -99 -151 -61 -24 12 -34 13 -45 3 -21 -17 -18 -25 20 -48
67 -42 184 -20 218 41 8 15 14 77 16 176 l4 152 -31 0 c-21 0 -31 -5 -31 -15
0 -12 -6 -11 -32 5 -38 23 -71 25 -113 6z m123 -73 c31 -34 29 -78 -7 -114
-46 -46 -112 -34 -136 25 -39 93 74 164 143 89z"/>
<path d="M1575 1690 c-50 -25 -75 -65 -75 -120 0 -106 103 -168 207 -125 l37
16 -21 20 c-17 17 -24 19 -41 10 -11 -6 -32 -11 -45 -11 -28 0 -82 39 -70 50
4 5 50 25 101 45 50 21 92 41 92 45 0 15 -43 61 -70 75 -39 20 -67 19 -115 -5z
m110 -59 c0 -7 -30 -26 -67 -41 -71 -31 -83 -26 -57 21 22 41 124 57 124 20z"/>
<path d="M2640 1690 c-45 -23 -73 -72 -73 -126 0 -99 108 -165 197 -119 35 18
36 18 36 0 0 -9 9 -15 25 -15 l25 0 0 135 0 135 -25 0 c-15 0 -25 -6 -25 -15
0 -12 -6 -11 -32 5 -41 25 -82 25 -128 0z m108 -45 c14 -4 30 -21 38 -41 12
-30 12 -39 0 -69 -19 -45 -57 -61 -107 -46 -75 22 -78 132 -5 161 21 8 29 8
74 -5z"/>
<path d="M3033 1691 c-17 -11 -36 -28 -42 -38 -9 -15 -10 -13 -11 15 0 27 -4
32 -25 32 l-25 0 0 -135 0 -135 25 0 c24 0 25 2 25 69 0 92 14 130 56 147 37
16 77 6 88 -21 3 -9 6 -57 6 -106 0 -88 0 -89 25 -89 l25 0 0 115 c0 113 -1
117 -26 140 -33 30 -77 32 -121 6z"/>
<path d="M3363 1691 c-17 -11 -36 -28 -42 -38 -9 -15 -10 -13 -11 15 0 27 -4
32 -25 32 l-25 0 0 -135 0 -135 25 0 c24 0 25 2 25 69 0 37 5 83 11 101 21 58
110 74 130 23 5 -13 9 -62 9 -109 0 -83 0 -84 25 -84 l25 0 0 105 c0 114 -9
147 -47 164 -35 16 -64 14 -100 -8z"/>
<path d="M3650 1692 c-106 -53 -105 -192 2 -248 35 -18 80 -18 125 1 l37 16
-21 20 c-17 17 -24 19 -41 10 -33 -18 -69 -13 -99 13 l-28 24 35 14 c19 8 64
26 99 39 35 13 66 30 68 37 7 16 -32 58 -69 78 -36 19 -66 18 -108 -4z m108
-57 c11 -10 1 -18 -57 -40 -39 -16 -74 -26 -76 -23 -12 12 22 62 50 74 32 14
61 10 83 -11z"/>
<path d="M4004 1696 c-17 -8 -39 -24 -48 -37 l-16 -23 -6 32 c-5 22 -12 32
-25 32 -18 0 -19 -10 -19 -135 l0 -135 25 0 c24 0 25 2 25 76 0 41 4 83 10 93
5 10 28 26 50 35 34 14 40 20 40 46 0 16 -1 30 -2 30 -2 -1 -17 -7 -34 -14z"/>
<path d="M490 1590 c0 -104 1 -112 25 -135 38 -39 97 -35 141 9 l34 34 0 -34
c0 -30 3 -34 25 -34 l25 0 0 135 0 135 -25 0 c-24 0 -25 -3 -25 -57 0 -85 -15
-130 -50 -148 -39 -20 -56 -19 -80 5 -17 17 -20 33 -20 110 0 89 0 90 -25 90
l-25 0 0 -110z"/>
<path d="M422 1110 c13 -23 59 -89 103 -147 303 -407 718 -662 1237 -760 72
-13 146 -17 328 -17 250 0 314 7 517 60 322 83 667 290 903 541 71 74 211 257
248 323 l23 40 -28 0 c-24 0 -36 -13 -85 -88 -168 -258 -436 -496 -716 -636
-287 -144 -547 -206 -862 -206 -315 0 -575 62 -862 206 -280 140 -548 378
-716 636 -49 75 -61 88 -85 88 l-28 0 23 -40z"/>
</g>
</svg>
